<svg xmlns="http://www.w3.org/2000/svg" viewBox="0 0 85 85"><defs><style>.cls-1{fill:#fff;}.cls-2{fill:#606262;}</style></defs><g id="レイヤー_2" data-name="レイヤー 2"><g id="レイヤー_1-2" data-name="レイヤー 1"><rect class="cls-1" width="85" height="85"/><path class="cls-2" d="M59.12,43.36V31.28h-1V43.05a57.82,57.82,0,0,0-15.62-2,66.7,66.7,0,0,0-10.38.8V30.16h-1v11.9c-6.32,1.14-11.06,3.25-11.06,6.1h1c0-2.93,8.62-6.07,21.44-6.07s21.44,3.14,21.44,6.07h1C64.94,46.18,62.64,44.55,59.12,43.36Z"/><polygon class="cls-2" points="31 56.97 30 56.97 30 50.47 31.06 50.47 31.06 51.47 31 51.47 31 56.97"/><path class="cls-2" d="M50.48,47a4.12,4.12,0,0,0-4,3.47H39.27a4.14,4.14,0,1,0,0,1h7.1A4.11,4.11,0,1,0,50.48,47ZM35.22,54.23a3.12,3.12,0,1,1,3.12-3.12A3.12,3.12,0,0,1,35.22,54.23Zm15.26,0a3.12,3.12,0,1,1,3.12-3.12A3.12,3.12,0,0,1,50.48,54.23Z"/><path class="cls-2" d="M44.9,39.8A11.31,11.31,0,1,1,56.2,28.5,11.31,11.31,0,0,1,44.9,39.8Zm0-21.61A10.31,10.31,0,1,0,55.2,28.5,10.32,10.32,0,0,0,44.9,18.19Z"/><path class="cls-2" d="M44.9,36.84a8.34,8.34,0,1,1,8.34-8.34A8.35,8.35,0,0,1,44.9,36.84Zm0-15.68a7.34,7.34,0,1,0,7.34,7.34A7.34,7.34,0,0,0,44.9,21.16Z"/><polygon class="cls-1" points="46.95 23.75 46.47 26.17 45.98 28.59 45.04 28.18 44.09 27.78 45.52 25.76 46.95 23.75"/><path class="cls-2" d="M46.23,29.06l-2.65-1.14,4-5.65Zm-1.62-1.43,1.12.49.58-2.89Z"/><polygon class="cls-2" points="43.57 27.94 42.21 34.73 46.22 29.08 43.57 27.94"/><path class="cls-2" d="M50.5,62c-1.15-1.45-1.66-3.25-3.09-3.8a3.67,3.67,0,0,0,.08-.75h-1a3.85,3.85,0,0,1-7.64,0,3.61,3.61,0,0,1,3.82-3.35,4.21,4.21,0,0,1,2.16.58l.51-.85a5.12,5.12,0,0,0-2.67-.73,4.61,4.61,0,0,0-4.82,4.35,3.72,3.72,0,0,0,.08.67C36.3,58.58,35.8,60.5,34.6,62c-4.88,6.21-11.46.93-11.32,1.34.55,1.57,5.49,4,7.23,4.24,9.08,1,11.57-2.37,12-5.12.47,2.75,3,6.17,12,5.12,1.74-.2,6.69-2.67,7.23-4.24C62,63,55.37,68.24,50.5,62Z"/></g></g></svg>