<svg xmlns="http://www.w3.org/2000/svg" viewBox="0 0 85 85"><defs><style>.cls-1{fill:#fff;}.cls-2{fill:#606262;}</style></defs><g id="レイヤー_2" data-name="レイヤー 2"><g id="レイヤー_1-2" data-name="レイヤー 1"><rect class="cls-1" width="85" height="85"/><path class="cls-2" d="M48.53,30.13l-1-.09c0-.53-.69-1.42-2.92-2.33a30.52,30.52,0,0,0-8.14-1.8c-7-.66-11.53.7-11.65,2l-1-.1c.25-2.62,6.75-3.44,12.74-2.87A31,31,0,0,1,45,26.78C47.42,27.77,48.64,28.93,48.53,30.13Z"/><path class="cls-2" d="M48.18,43.68V31.59h-1V43.36a58.24,58.24,0,0,0-15.62-2,66.72,66.72,0,0,0-10.38.79V30.47h-1v11.9c-6.32,1.14-11.06,3.25-11.06,6.1h1c0-2.93,8.62-6.06,21.44-6.06S53,45.54,53,48.47h1C54,46.49,51.7,44.87,48.18,43.68Z"/><polygon class="cls-2" points="20.06 57.28 19.06 57.28 19.06 50.78 20.12 50.78 20.12 51.78 20.06 51.78 20.06 57.28"/><path class="cls-2" d="M39.54,47.31a4.12,4.12,0,0,0-4,3.47H28.33a4.14,4.14,0,1,0,0,1h7.1a4.11,4.11,0,1,0,4.08-4.47ZM24.28,54.54a3.12,3.12,0,1,1,3.12-3.11A3.12,3.12,0,0,1,24.28,54.54Zm15.26,0a3.12,3.12,0,1,1,3.12-3.11A3.12,3.12,0,0,1,39.54,54.54Z"/><path class="cls-2" d="M68.66,44.08H64.51a1.31,1.31,0,0,1-1.31-1.31v-4.5A1.31,1.31,0,0,1,64.51,37h4.15A1.31,1.31,0,0,1,70,38.27v4.5A1.3,1.3,0,0,1,68.66,44.08ZM64.51,38a.31.31,0,0,0-.31.31v4.5a.31.31,0,0,0,.31.31h4.15a.3.3,0,0,0,.31-.31v-4.5a.31.31,0,0,0-.31-.31Z"/><path class="cls-2" d="M64.08,40.8l-.26-1A38.59,38.59,0,0,0,69,38.09l.46.9A40.6,40.6,0,0,1,64.08,40.8Z"/><path class="cls-2" d="M64.08,42.77l-.26-1A38.59,38.59,0,0,0,69,40.06l.46.9A40.6,40.6,0,0,1,64.08,42.77Z"/><path class="cls-2" d="M66.69,21.35a7.46,7.46,0,1,0,7.46,7.46A7.47,7.47,0,0,0,66.69,21.35Zm.62,13.89a1.24,1.24,0,0,1-.18-.88c.11-.32.68-.53,1.27-.75a4.44,4.44,0,0,0,2-1.23,1.77,1.77,0,0,0,.36-2c-1-1.78-5.65-1.84-6.77-1.76l-.41,0-.05.41a1.91,1.91,0,0,0,.61,1.66,4.47,4.47,0,0,0,3.47.9l.29-.05.1-.28a.85.85,0,0,0-.36-1.16L67.57,30l-.59.63a3.25,3.25,0,0,1-2.1-.68,1,1,0,0,1-.27-.39c1.89,0,4.84.35,5.32,1.25,0,.09.18.35-.27.93a3.61,3.61,0,0,1-1.61.91c-.78.29-1.59.59-1.86,1.35a1.81,1.81,0,0,0,0,1.23,6.43,6.43,0,1,1,1.07,0Z"/><path class="cls-2" d="M61,20.25c-.54-1.08-1.61-3.14-2.21-4l.82-.57a46.35,46.35,0,0,1,2.29,4.14Z"/><path class="cls-2" d="M67.18,19.34l-1,0a45.76,45.76,0,0,0-.11-4.59l1-.12C67.23,16,67.18,19,67.18,19.34Z"/><path class="cls-2" d="M72.16,20.2l-.8-.6A45.24,45.24,0,0,0,74,15.83l.88.49C74.31,17.3,72.9,19.22,72.16,20.2Z"/><path class="cls-2" d="M39.56,62.35c-1.15-1.46-1.66-3.25-3.09-3.8a3.84,3.84,0,0,0,.08-.76h-1a3.61,3.61,0,0,1-3.82,3.35,3.38,3.38,0,1,1,0-6.7,4.12,4.12,0,0,1,2.16.59l.51-.86a5.12,5.12,0,0,0-2.67-.73,4.61,4.61,0,0,0-4.82,4.35,3.94,3.94,0,0,0,.08.68c-1.63.43-2.13,2.34-3.33,3.88-4.88,6.21-11.46.92-11.32,1.33.55,1.57,5.49,4.05,7.23,4.25,9.08,1,11.57-2.38,12-5.13.47,2.75,3,6.17,12,5.13,1.74-.2,6.69-2.68,7.23-4.25C51,63.27,44.43,68.56,39.56,62.35Z"/></g></g></svg>