<svg viewBox="0 0 85 85" xmlns="http://www.w3.org/2000/svg"><path d="m0 0h85v85h-85z" fill="#fff"/><g fill="#606262"><path d="m48.53 30.13-1-.09c0-.53-.69-1.42-2.92-2.33a30.52 30.52 0 0 0 -8.14-1.8c-7-.66-11.53.7-11.65 2l-1-.1c.25-2.62 6.75-3.44 12.74-2.87a31 31 0 0 1 8.44 1.84c2.42.99 3.64 2.15 3.53 3.35z"/><path d="m48.18 43.68v-12.09h-1v11.77a58.24 58.24 0 0 0 -15.62-2 66.72 66.72 0 0 0 -10.38.79v-11.68h-1v11.9c-6.32 1.14-11.06 3.25-11.06 6.1h1c0-2.93 8.62-6.06 21.44-6.06s21.44 3.13 21.44 6.06h1c0-1.98-2.3-3.6-5.82-4.79z"/><path d="m20.06 57.28h-1v-6.5h1.06v1h-.06z"/><path d="m39.54 47.31a4.12 4.12 0 0 0 -4 3.47h-7.21a4.14 4.14 0 1 0 0 1h7.1a4.11 4.11 0 1 0 4.08-4.47zm-15.26 7.23a3.12 3.12 0 1 1 3.12-3.11 3.12 3.12 0 0 1 -3.12 3.11zm15.26 0a3.12 3.12 0 1 1 3.12-3.11 3.12 3.12 0 0 1 -3.12 3.11z"/><path d="m68.66 44.08h-4.15a1.31 1.31 0 0 1 -1.31-1.31v-4.5a1.31 1.31 0 0 1 1.31-1.27h4.15a1.31 1.31 0 0 1 1.34 1.27v4.5a1.3 1.3 0 0 1 -1.34 1.31zm-4.15-6.08a.31.31 0 0 0 -.31.31v4.5a.31.31 0 0 0 .31.31h4.15a.3.3 0 0 0 .31-.31v-4.5a.31.31 0 0 0 -.31-.31z"/><path d="m64.08 40.8-.26-1a38.59 38.59 0 0 0 5.18-1.71l.46.9a40.6 40.6 0 0 1 -5.38 1.81z"/><path d="m64.08 42.77-.26-1a38.59 38.59 0 0 0 5.18-1.71l.46.9a40.6 40.6 0 0 1 -5.38 1.81z"/><path d="m66.69 21.35a7.46 7.46 0 1 0 7.46 7.46 7.47 7.47 0 0 0 -7.46-7.46zm.62 13.89a1.24 1.24 0 0 1 -.18-.88c.11-.32.68-.53 1.27-.75a4.44 4.44 0 0 0 2-1.23 1.77 1.77 0 0 0 .36-2c-1-1.78-5.65-1.84-6.77-1.76h-.41l-.05.41a1.91 1.91 0 0 0 .61 1.66 4.47 4.47 0 0 0 3.47.9l.29-.05.1-.28a.85.85 0 0 0 -.36-1.16l-.07-.1-.59.63a3.25 3.25 0 0 1 -2.1-.68 1 1 0 0 1 -.27-.39c1.89 0 4.84.35 5.32 1.25 0 .09.18.35-.27.93a3.61 3.61 0 0 1 -1.61.91c-.78.29-1.59.59-1.86 1.35a1.81 1.81 0 0 0 0 1.23 6.43 6.43 0 1 1 1.07 0z"/><path d="m61 20.25c-.54-1.08-1.61-3.14-2.21-4l.82-.57a46.35 46.35 0 0 1 2.29 4.14z"/><path d="m67.18 19.34h-1a45.76 45.76 0 0 0 -.11-4.59l1-.12c.16 1.37.11 4.37.11 4.71z"/><path d="m72.16 20.2-.8-.6a45.24 45.24 0 0 0 2.64-3.77l.88.49c-.57.98-1.98 2.9-2.72 3.88z"/><path d="m39.56 62.35c-1.15-1.46-1.66-3.25-3.09-3.8a3.84 3.84 0 0 0 .08-.76h-1a3.61 3.61 0 0 1 -3.82 3.35 3.38 3.38 0 1 1 0-6.7 4.12 4.12 0 0 1 2.16.59l.51-.86a5.12 5.12 0 0 0 -2.67-.73 4.61 4.61 0 0 0 -4.82 4.35 3.94 3.94 0 0 0 .08.68c-1.63.43-2.13 2.34-3.33 3.88-4.88 6.21-11.46.92-11.32 1.33.55 1.57 5.49 4.05 7.23 4.25 9.08 1 11.57-2.38 12-5.13.47 2.75 3 6.17 12 5.13 1.74-.2 6.69-2.68 7.23-4.25.2-.41-6.37 4.88-11.24-1.33z"/></g></svg>