<svg xmlns="http://www.w3.org/2000/svg" viewBox="0 0 85 85"><defs><style>.cls-1{fill:#fff;}.cls-2{fill:#606262;}</style></defs><g id="レイヤー_2" data-name="レイヤー 2"><g id="レイヤー_1-2" data-name="レイヤー 1"><rect class="cls-1" width="85" height="85"/><path class="cls-2" d="M59,22.05,58,22c0-.53-.69-1.42-2.93-2.33A30.07,30.07,0,0,0,47,17.83c-7-.67-11.53.7-11.65,2l-1-.09c.25-2.63,6.75-3.45,12.73-2.88a31.34,31.34,0,0,1,8.43,1.87C57.91,19.68,59.14,20.84,59,22.05Z"/><path class="cls-2" d="M58.68,35.59V23.51h-1V35.28a57.85,57.85,0,0,0-15.63-2,67.83,67.83,0,0,0-10.37.79V22.38h-1V34.29c-6.32,1.14-11.06,3.24-11.06,6.09h1c0-2.92,8.61-6.06,21.43-6.06s21.44,3.14,21.44,6.06h1C64.49,38.4,62.2,36.78,58.68,35.59Z"/><polygon class="cls-2" points="30.55 49.2 29.55 49.2 29.55 42.7 30.62 42.7 30.62 43.7 30.55 43.7 30.55 49.2"/><path class="cls-2" d="M50,39.23a4.1,4.1,0,0,0-4,3.47H38.83a4.14,4.14,0,1,0,0,1H46A4.1,4.1,0,1,0,50,39.23ZM34.78,46.46a3.12,3.12,0,1,1,3.11-3.12A3.12,3.12,0,0,1,34.78,46.46Zm15.26,0a3.12,3.12,0,1,1,3.11-3.12A3.12,3.12,0,0,1,50,46.46Z"/><path class="cls-2" d="M64.86,68.34a1.89,1.89,0,0,1-1.74-2.66L69.59,51l-1.69-.74a2.75,2.75,0,0,1-1.4-3.61l4.73-10.77a1.38,1.38,0,0,1,.76-.72,1.3,1.3,0,0,1,1,0,1.33,1.33,0,0,1,.8,1.11v.13l-2,4.62a.37.37,0,0,0,.19.48.38.38,0,0,0,.35,0l.11-.07s0,0,0-.07l2.08-4.62A1.37,1.37,0,0,1,76,36.45a1.34,1.34,0,0,1,.79,1.11l0,.13-2,4.62a1.49,1.49,0,0,0,0,.25.33.33,0,0,0,.19.23.38.38,0,0,0,.35,0l.11-.07s0,0,0-.07L77.55,38A1.38,1.38,0,0,1,79,37.76a1.34,1.34,0,0,1,.79,1.11l0,.13-2,4.62a.39.39,0,0,0,.19.48.36.36,0,0,0,.48-.18l2.08-4.62a1.36,1.36,0,0,1,2.15,1.57L78,51.64a2.75,2.75,0,0,1-3.61,1.41l.4-.92A1.73,1.73,0,0,0,77,51.24l4.74-10.77a.38.38,0,0,0-.19-.49.36.36,0,0,0-.32,0l-1.9,4.32a1.37,1.37,0,0,1-1.8.7,1.43,1.43,0,0,1-.7-1.8l1.91-4.35a.34.34,0,0,0-.17-.2.36.36,0,0,0-.32,0L76.38,43a1.21,1.21,0,0,1-.35.47l-.15.1a1.37,1.37,0,0,1-1.3.13,1.34,1.34,0,0,1-.78-1.06,1.69,1.69,0,0,1,.08-.74l1.91-4.35a.32.32,0,0,0-.18-.2.34.34,0,0,0-.31,0L73.4,41.7a1.41,1.41,0,0,1-.35.47l-.15.1a1.34,1.34,0,0,1-1.3.13,1.37,1.37,0,0,1-.7-1.8l1.91-4.35a.38.38,0,0,0-.18-.2.37.37,0,0,0-.48.19L67.42,47a1.71,1.71,0,0,0,0,1.33,1.67,1.67,0,0,0,.92,1l2.6,1.15L64,66.08a.9.9,0,1,0,1.64.72l6.67-15.17.92.4L66.6,67.21A1.9,1.9,0,0,1,64.86,68.34Z"/><path class="cls-2" d="M19.75,68.34A1.9,1.9,0,0,1,18,67.22L11.7,53.13c-3.22.34-6.72-2.12-8.46-6C1.16,42.5,2.31,37.46,5.8,35.89a6.15,6.15,0,0,1,5.64.49,10.81,10.81,0,0,1,4.45,5.08,11.08,11.08,0,0,1,1,6l-1-.13A10.22,10.22,0,0,0,15,41.86a9.91,9.91,0,0,0-4-4.61,5.23,5.23,0,0,0-4.74-.45c-3,1.34-3.91,5.79-2.06,9.92C5.78,50.35,9,52.6,11.91,52.09L12.3,52l6.63,14.79a.9.9,0,0,0,1.64-.73L14,51.51,15,51.1l6.53,14.57a1.9,1.9,0,0,1-.95,2.51A2,2,0,0,1,19.75,68.34Z"/><path class="cls-2" d="M50.05,54.26C48.91,52.8,48.4,51,47,50.46a3.84,3.84,0,0,0,.09-.75h-1a3.62,3.62,0,0,1-3.82,3.35,3.61,3.61,0,0,1-3.82-3.35,3.62,3.62,0,0,1,3.82-3.36,4.18,4.18,0,0,1,2.15.59l.52-.86a5.25,5.25,0,0,0-2.67-.73,4.61,4.61,0,0,0-4.82,4.36,3.39,3.39,0,0,0,.07.64c-1.64.42-2.12,2.37-3.33,3.91-4.87,6.21-11.46.93-11.31,1.34.54,1.57,5.48,4,7.23,4.24a20.09,20.09,0,0,0,6.54-.15c.45,3.25,2.54,5.71,5,5.71s4.68-2.58,5.06-5.93a18.43,18.43,0,0,0,7.44.37c1.74-.2,6.68-2.67,7.22-4.24C61.51,55.19,54.92,60.47,50.05,54.26ZM41.64,64.4c-2,0-3.71-2.14-4.06-5,3.1-1,4.22-3,4.52-4.72a5.73,5.73,0,0,0,3.64,4.39C45.48,62.09,43.75,64.4,41.64,64.4Z"/></g></g></svg>