<?xml version="1.0" encoding="utf-8"?>
<!-- Generator: Adobe Illustrator 24.3.0, SVG Export Plug-In . SVG Version: 6.00 Build 0)  -->
<svg version="1.1" id="レイヤー_1" xmlns="http://www.w3.org/2000/svg" xmlns:xlink="http://www.w3.org/1999/xlink" x="0px"
	 y="0px" viewBox="0 0 85 85" style="enable-background:new 0 0 85 85;" xml:space="preserve">
<style type="text/css">
	.st0{fill:#FFFFFF;}
</style>
<g>
	<path class="st0" d="M59.1,43.4V31.3h-1V43c-5.1-1.4-10.3-2-15.6-2c-3.5,0-6.9,0.3-10.4,0.8V30.2h-1v11.9
		c-6.3,1.1-11.1,3.2-11.1,6.1h1c0-2.9,8.6-6.1,21.4-6.1s21.4,3.1,21.4,6.1h1C64.9,46.2,62.6,44.5,59.1,43.4z"/>
	<path class="st0" d="M30,50.5V57h1v-5.5h0.1c0.3,2.3,2.3,3.9,4.6,3.6c1.9-0.2,3.4-1.7,3.6-3.6h7.1c0.2,2.3,2.2,3.9,4.5,3.7
		s3.9-2.2,3.7-4.5c-0.2-2.1-2-3.7-4.1-3.7c-2,0-3.7,1.5-4,3.5h-7.2c-0.3-2.3-2.3-3.9-4.6-3.6c-1.9,0.2-3.4,1.8-3.6,3.6v0H30z
		 M50.5,48c1.7,0,3.1,1.4,3.1,3.1s-1.4,3.1-3.1,3.1c-1.7,0-3.1-1.4-3.1-3.1S48.8,48,50.5,48z M35.2,48c1.7,0,3.1,1.4,3.1,3.1
		s-1.4,3.1-3.1,3.1c-1.7,0-3.1-1.4-3.1-3.1S33.5,48,35.2,48z"/>
	<path class="st0" d="M44.9,39.8c6.2,0,11.3-5.1,11.3-11.3c0,0,0,0,0,0c0-6.2-5.1-11.3-11.3-11.3c-6.2,0-11.3,5.1-11.3,11.3
		C33.6,34.7,38.7,39.8,44.9,39.8z M44.9,18.2c5.7,0,10.3,4.6,10.3,10.3c0,0,0,0,0,0c0,5.7-4.6,10.3-10.3,10.3
		c-5.7,0-10.3-4.6-10.3-10.3C34.6,22.8,39.2,18.2,44.9,18.2z"/>
	<path class="st0" d="M44.9,36.8c4.6,0,8.3-3.7,8.3-8.3c0-4.6-3.7-8.3-8.3-8.3c-4.6,0-8.3,3.7-8.3,8.3S40.3,36.8,44.9,36.8z
		 M44.9,21.2c4.1,0,7.3,3.3,7.3,7.3s-3.3,7.3-7.3,7.3s-7.3-3.3-7.3-7.3S40.8,21.2,44.9,21.2z"/>
	<path class="st0" d="M50.5,62c-1.2-1.5-1.7-3.2-3.1-3.8c0.1-0.2,0.1-0.5,0.1-0.8h-1c-0.3,2.1-2.2,3.6-4.3,3.3
		c-1.7-0.2-3.1-1.6-3.3-3.3c0.1-2,1.8-3.5,3.8-3.4c0.8,0,1.5,0.2,2.2,0.6l0.5-0.8c-0.8-0.5-1.7-0.7-2.7-0.7
		c-2.5-0.1-4.7,1.8-4.8,4.4c0,0.2,0,0.4,0.1,0.7c-1.6,0.5-2.1,2.4-3.3,3.9c-4.9,6.2-11.5,0.9-11.3,1.3c0.5,1.6,5.5,4,7.2,4.2
		c9.1,1,11.6-2.4,12-5.1c0.5,2.8,3,6.2,12,5.1c1.7-0.2,6.7-2.7,7.2-4.2C62,63,55.4,68.2,50.5,62z"/>
	<path class="st0" d="M47.6,22.3l-4,5.6l2.6,1.1L47.6,22.3z M44.6,27.6l1.7-2.4l-0.6,2.9L44.6,27.6z"/>
	<polygon class="st0" points="43.6,27.9 42.2,34.7 46.2,29.1 	"/>
</g>
</svg>
