<svg viewBox="0 0 85 85" xmlns="http://www.w3.org/2000/svg"><path d="m0 0h85v85h-85z" fill="#fff"/><g fill="#606262"><path d="m59.12 43.36v-12.08h-1v11.77a57.82 57.82 0 0 0 -15.62-2 66.7 66.7 0 0 0 -10.38.8v-11.69h-1v11.9c-6.32 1.14-11.06 3.25-11.06 6.1h1c0-2.93 8.62-6.07 21.44-6.07s21.44 3.14 21.44 6.07h1c0-1.98-2.3-3.61-5.82-4.8z"/><path d="m31 56.97h-1v-6.5h1.06v1h-.06z"/><path d="m50.48 47a4.12 4.12 0 0 0 -4 3.47h-7.21a4.14 4.14 0 1 0 0 1h7.1a4.11 4.11 0 1 0 4.11-4.47zm-15.26 7.23a3.12 3.12 0 1 1 3.12-3.12 3.12 3.12 0 0 1 -3.12 3.12zm15.26 0a3.12 3.12 0 1 1 3.12-3.12 3.12 3.12 0 0 1 -3.12 3.12z"/><path d="m44.9 39.8a11.31 11.31 0 1 1 11.3-11.3 11.31 11.31 0 0 1 -11.3 11.3zm0-21.61a10.31 10.31 0 1 0 10.3 10.31 10.32 10.32 0 0 0 -10.3-10.31z"/><path d="m44.9 36.84a8.34 8.34 0 1 1 8.34-8.34 8.35 8.35 0 0 1 -8.34 8.34zm0-15.68a7.34 7.34 0 1 0 7.34 7.34 7.34 7.34 0 0 0 -7.34-7.34z"/></g><path d="m46.95 23.75-.48 2.42-.49 2.42-.94-.41-.95-.4 1.43-2.02z" fill="#fff"/><path d="m46.23 29.06-2.65-1.14 4-5.65zm-1.62-1.43 1.12.49.58-2.89z" fill="#606262"/><path d="m43.57 27.94-1.36 6.79 4.01-5.65z" fill="#606262"/><path d="m50.5 62c-1.15-1.45-1.66-3.25-3.09-3.8a3.67 3.67 0 0 0 .08-.75h-1a3.85 3.85 0 0 1 -7.64 0 3.61 3.61 0 0 1 3.82-3.35 4.21 4.21 0 0 1 2.16.58l.51-.85a5.12 5.12 0 0 0 -2.67-.73 4.61 4.61 0 0 0 -4.82 4.35 3.72 3.72 0 0 0 .08.67c-1.63.46-2.13 2.38-3.33 3.88-4.88 6.21-11.46.93-11.32 1.34.55 1.57 5.49 4 7.23 4.24 9.08 1 11.57-2.37 12-5.12.47 2.75 3 6.17 12 5.12 1.74-.2 6.69-2.67 7.23-4.24.26-.34-6.37 4.9-11.24-1.34z" fill="#606262"/></svg>