<svg xmlns="http://www.w3.org/2000/svg" viewBox="0 0 85 85"><defs><style>.cls-1{fill:#fff;}.cls-2{fill:#606262;}</style></defs><g id="レイヤー_2" data-name="レイヤー 2"><g id="レイヤー_1-2" data-name="レイヤー 1"><rect class="cls-1" width="85" height="85"/><path class="cls-2" d="M51,16.58l-1-.1c.12-1.27-4-3.46-11.07-4.12s-11.53.7-11.65,2l-1-.09C26.49,11.61,33,10.79,39,11.36S51.2,14,51,16.58Z"/><path class="cls-2" d="M50.61,30.12V18h-1V29.81a57.85,57.85,0,0,0-15.63-2,66.47,66.47,0,0,0-10.37.8V16.91h-1V28.82C16.28,30,11.54,32.07,11.54,34.91h1c0-2.92,8.62-6.06,21.44-6.06S55.42,32,55.42,34.91h1C56.42,32.93,54.13,31.31,50.61,30.12Z"/><path class="cls-2" d="M67.25,74.51l-.49-.09-32-6.23L41,36.24l32.46,6.32ZM36,67.4l30.49,5.94,5.84-30-30.49-6Z"/><rect class="cls-2" x="47.17" y="45.99" width="1" height="11.62" transform="translate(-12.29 88.69) rotate(-78.98)"/><rect class="cls-2" x="60.42" y="48.57" width="1" height="11.63" transform="translate(-4.1 103.78) rotate(-78.98)"/><rect class="cls-2" x="46.6" y="48.93" width="1" height="11.62" transform="translate(-15.65 90.5) rotate(-78.97)"/><rect class="cls-2" x="59.85" y="51.51" width="1" height="11.63" transform="translate(-7.46 105.6) rotate(-78.97)"/><rect class="cls-2" x="59.31" y="54.27" width="1" height="11.63" transform="translate(-10.6 107.31) rotate(-78.98)"/><rect class="cls-2" x="58.74" y="57.22" width="1" height="11.63" transform="translate(-13.96 109.12) rotate(-78.97)"/><rect class="cls-2" x="44.95" y="57.4" width="1" height="11.63" transform="translate(-25.29 95.73) rotate(-78.97)"/><rect class="cls-2" x="58.2" y="59.98" width="1" height="11.62" transform="translate(-17.1 110.83) rotate(-78.98)"/><rect class="cls-2" x="44.37" y="60.34" width="1" height="11.63" transform="translate(-28.64 97.55) rotate(-78.97)"/><rect class="cls-2" x="57.62" y="62.92" width="1" height="11.62" transform="translate(-20.46 112.64) rotate(-78.97)"/><path class="cls-2" d="M51.56,62,40.31,59.85l.84-4.29L52.4,57.75Zm-10.07-3,9.28,1.81.45-2.33-9.28-1.81Z"/><path class="cls-2" d="M67.24,52.81,42.62,48l1.58-8.12,24.63,4.8ZM43.79,47.22l22.66,4.41,1.2-6.15L45,41.07Z"/><polygon class="cls-2" points="22.48 43.73 21.48 43.73 21.48 37.23 22.54 37.23 22.54 38.23 22.48 38.23 22.48 43.73"/><path class="cls-2" d="M40,41.47l.2-1A3.11,3.11,0,1,1,44.94,37l1.07.21a4.09,4.09,0,0,0-8.09,0H30.75a4.14,4.14,0,1,0,0,1h7.11A4.12,4.12,0,0,0,40,41.47ZM26.71,41a3.12,3.12,0,1,1,3.11-3.12A3.12,3.12,0,0,1,26.71,41Z"/><path class="cls-2" d="M38.89,45a3.56,3.56,0,0,0,.09-.73H38a3.62,3.62,0,0,1-3.83,3.35,3.62,3.62,0,0,1-3.82-3.35,3.61,3.61,0,0,1,3.82-3.35,4.18,4.18,0,0,1,2.16.58l.52-.85a5.16,5.16,0,0,0-2.68-.73,4.61,4.61,0,0,0-4.82,4.35,4.48,4.48,0,0,0,.07.64c-1.63.42-2.11,2.37-3.32,3.91-4.87,6.21-11.46.93-11.32,1.34.55,1.57,5.49,4,7.23,4.24,9.1,1.05,11.57-2.38,12-5.14a5.72,5.72,0,0,0,3.61,4.4l1.65-8.48A1.81,1.81,0,0,0,38.89,45ZM34.1,48.58Z"/></g></g></svg>