<svg viewBox="0 0 65.74 64.82" xmlns="http://www.w3.org/2000/svg"><g fill="#616262"><path d="m25.15 27.24v-1c6.27 0 11.7-5.29 12.11-11.79a12.62 12.62 0 0 0 -25.19-1.65v.82s0 .74 0 1.1l-1 .08c0-.39 0-.78 0-1.18s0-.59 0-.89a13.62 13.62 0 0 1 27.18 1.78c-.43 7.02-6.32 12.73-13.1 12.73z"/><path d="m20.29 18.17a4.23 4.23 0 1 1 4.23-4.17 4.22 4.22 0 0 1 -4.23 4.17zm0-7.45a3.23 3.23 0 1 0 3.23 3.28 3.23 3.23 0 0 0 -3.23-3.28z"/><path d="m20.54 46.84a4.48 4.48 0 0 1 -4.47-4.46v-28h1v28a3.47 3.47 0 0 0 6.93 0v-.51l17.68.42v1l-16.68-.4a4.48 4.48 0 0 1 -4.46 3.95z"/><path d="m49.21 48.87v-1a3.4 3.4 0 0 0 3.38-3.39 3.25 3.25 0 0 0 -.46-1.69l-.44-.79h4.31a3.38 3.38 0 0 0 2.8-5.29l-.53-.71h3.09a3.39 3.39 0 1 0 0-6.77h-30.13a3.4 3.4 0 0 0 -3.39 3.39h-1a4.4 4.4 0 0 1 4.39-4.38h30.13a4.39 4.39 0 0 1 0 8.77h-1.3a4.39 4.39 0 0 1 -4.06 5.99h-2.65a4.4 4.4 0 0 1 -4.14 5.83z"/><path d="m22.42 64.82c-12.36 0-22.42-8.9-22.42-19.82 0-7.38 4.58-14.1 12-17.55l.42.91c-7.06 3.27-11.42 9.64-11.42 16.64 0 10.38 9.61 18.83 21.42 18.83 9.62 0 18-5.57 20.6-13.63-.64 0-1.22.06-1.77.06v-1c.73 0 1.49 0 2.42-.1h.71l-.2.68c-2.48 8.8-11.43 14.98-21.76 14.98z"/><path d="m7.51 22.57h-2.25a4.27 4.27 0 1 1 0-8.53h6.32v1h-6.32a3.27 3.27 0 1 0 0 6.53h2.25z"/></g></svg>