<svg viewBox="0 0 524.16 67.67" xmlns="http://www.w3.org/2000/svg"><g fill="#dbbe1d"><path d="m44.3 57.25h435.4a11.38 11.38 0 0 0 11.36-11.37v-34.52a11.38 11.38 0 0 0 -11.36-11.36h-435.4a11.38 11.38 0 0 0 -11.36 11.36v34.52a11.38 11.38 0 0 0 11.36 11.37zm-10.36-45.89a10.37 10.37 0 0 1 10.36-10.36h435.4a10.37 10.37 0 0 1 10.36 10.36v34.52a10.38 10.38 0 0 1 -10.36 10.37h-435.4a10.38 10.38 0 0 1 -10.36-10.37z"/><path d="m505.88 46.56 10.92-20.68h-18.42v26.56a9.44 9.44 0 0 1 -3.29 7.09c-5.63 5.21-17.33 6.88-22.82 7.13h-2.36v1a7.55 7.55 0 0 0 .76 0h53.53zm-10.11 13.7a10.4 10.4 0 0 0 3.61-7.82v-25.56h15.76l-10.46 19.81 17.29 20h-41.37c5.32-1.03 11.4-2.92 15.17-6.43z"/><path d="m51.89 66.66c-5.49-.25-17.18-1.92-22.82-7.13a9.43 9.43 0 0 1 -3.28-7.09v-26.56h-18.43l10.91 20.68-18.27 21.1h53.53a7.55 7.55 0 0 0 .76 0v-1zm-49.7 0 17.29-20-10.48-19.78h15.79v25.56a10.39 10.39 0 0 0 3.6 7.82c3.79 3.51 9.85 5.4 15.18 6.4z"/></g></svg>