<svg viewBox="0 0 85 85" xmlns="http://www.w3.org/2000/svg"><path d="m0 0h85v85h-85z" fill="#fff"/><g fill="#606262"><path d="m59 22.05-1-.05c0-.53-.69-1.42-2.93-2.33a30.07 30.07 0 0 0 -8.07-1.84c-7-.67-11.53.7-11.65 2l-1-.09c.25-2.63 6.75-3.45 12.73-2.88a31.34 31.34 0 0 1 8.43 1.87c2.4.95 3.63 2.11 3.49 3.32z"/><path d="m58.68 35.59v-12.08h-1v11.77a57.85 57.85 0 0 0 -15.63-2 67.83 67.83 0 0 0 -10.37.79v-11.69h-1v11.91c-6.32 1.14-11.06 3.24-11.06 6.09h1c0-2.92 8.61-6.06 21.43-6.06s21.44 3.14 21.44 6.06h1c0-1.98-2.29-3.6-5.81-4.79z"/><path d="m30.55 49.2h-1v-6.5h1.07v1h-.07z"/><path d="m50 39.23a4.1 4.1 0 0 0 -4 3.47h-7.17a4.14 4.14 0 1 0 0 1h7.17a4.1 4.1 0 1 0 4-4.47zm-15.22 7.23a3.12 3.12 0 1 1 3.11-3.12 3.12 3.12 0 0 1 -3.11 3.12zm15.26 0a3.12 3.12 0 1 1 3.11-3.12 3.12 3.12 0 0 1 -3.15 3.12z"/><path d="m64.86 68.34a1.89 1.89 0 0 1 -1.74-2.66l6.47-14.68-1.69-.74a2.75 2.75 0 0 1 -1.4-3.61l4.73-10.77a1.38 1.38 0 0 1 .76-.72 1.3 1.3 0 0 1 1 0 1.33 1.33 0 0 1 .8 1.11v.13l-2 4.62a.37.37 0 0 0 .19.48.38.38 0 0 0 .35 0l.11-.07s0 0 0-.07l2.08-4.62a1.37 1.37 0 0 1 1.48-.29 1.34 1.34 0 0 1 .79 1.11v.13l-2 4.62a1.49 1.49 0 0 0 0 .25.33.33 0 0 0 .19.23.38.38 0 0 0 .35 0l.11-.07s0 0 0-.07l2.11-4.65a1.38 1.38 0 0 1 1.45-.24 1.34 1.34 0 0 1 .79 1.11v.13l-2 4.62a.39.39 0 0 0 .19.48.36.36 0 0 0 .48-.18l2.08-4.62a1.36 1.36 0 0 1 2.15 1.57l-4.69 10.77a2.75 2.75 0 0 1 -3.61 1.41l.4-.92a1.73 1.73 0 0 0 2.21-.89l4.74-10.77a.38.38 0 0 0 -.19-.49.36.36 0 0 0 -.32 0l-1.9 4.32a1.37 1.37 0 0 1 -1.8.7 1.43 1.43 0 0 1 -.7-1.8l1.91-4.35a.34.34 0 0 0 -.17-.2.36.36 0 0 0 -.32 0l-1.87 4.35a1.21 1.21 0 0 1 -.35.47l-.15.1a1.37 1.37 0 0 1 -1.3.13 1.34 1.34 0 0 1 -.78-1.06 1.69 1.69 0 0 1 .08-.74l1.91-4.35a.32.32 0 0 0 -.18-.2.34.34 0 0 0 -.31 0l-1.9 4.35a1.41 1.41 0 0 1 -.35.47l-.15.1a1.34 1.34 0 0 1 -1.3.13 1.37 1.37 0 0 1 -.7-1.8l1.91-4.35a.38.38 0 0 0 -.18-.2.37.37 0 0 0 -.48.19l-4.73 10.76a1.71 1.71 0 0 0 0 1.33 1.67 1.67 0 0 0 .92 1l2.6 1.15-6.94 15.6a.9.9 0 1 0 1.64.72l6.67-15.17.92.4-6.63 15.18a1.9 1.9 0 0 1 -1.74 1.13z"/><path d="m19.75 68.34a1.9 1.9 0 0 1 -1.75-1.12l-6.3-14.09c-3.22.34-6.72-2.12-8.46-6-2.08-4.63-.93-9.67 2.56-11.24a6.15 6.15 0 0 1 5.64.49 10.81 10.81 0 0 1 4.45 5.08 11.08 11.08 0 0 1 1 6l-1-.13a10.22 10.22 0 0 0 -.89-5.47 9.91 9.91 0 0 0 -4-4.61 5.23 5.23 0 0 0 -4.74-.45c-3 1.34-3.91 5.79-2.06 9.92 1.58 3.63 4.8 5.88 7.71 5.37l.39-.09 6.63 14.79a.9.9 0 0 0 1.64-.73l-6.57-14.55 1-.41 6.53 14.57a1.9 1.9 0 0 1 -.95 2.51 2 2 0 0 1 -.83.16z"/><path d="m50.05 54.26c-1.14-1.46-1.65-3.26-3.05-3.8a3.84 3.84 0 0 0 .09-.75h-1a3.62 3.62 0 0 1 -3.82 3.35 3.61 3.61 0 0 1 -3.82-3.35 3.62 3.62 0 0 1 3.82-3.36 4.18 4.18 0 0 1 2.15.59l.52-.86a5.25 5.25 0 0 0 -2.67-.73 4.61 4.61 0 0 0 -4.82 4.36 3.39 3.39 0 0 0 .07.64c-1.64.42-2.12 2.37-3.33 3.91-4.87 6.21-11.46.93-11.31 1.34.54 1.57 5.48 4 7.23 4.24a20.09 20.09 0 0 0 6.54-.15c.45 3.25 2.54 5.71 5 5.71s4.68-2.58 5.06-5.93a18.43 18.43 0 0 0 7.44.37c1.74-.2 6.68-2.67 7.22-4.24.14-.41-6.45 4.87-11.32-1.34zm-8.41 10.14c-2 0-3.71-2.14-4.06-5 3.1-1 4.22-3 4.52-4.72a5.73 5.73 0 0 0 3.64 4.39c-.26 3.02-1.99 5.33-4.1 5.33z"/></g></svg>