<svg viewBox="0 0 85 85" xmlns="http://www.w3.org/2000/svg"><path d="m0 0h85v85h-85z" fill="#fff"/><g fill="#606262"><path d="m51 16.58-1-.1c.12-1.27-4-3.46-11.07-4.12s-11.53.7-11.65 2l-1-.09c.21-2.66 6.72-3.48 12.72-2.91s12.2 2.64 12 5.22z"/><path d="m50.61 30.12v-12.12h-1v11.81a57.85 57.85 0 0 0 -15.63-2 66.47 66.47 0 0 0 -10.37.8v-11.7h-1v11.91c-6.33 1.18-11.07 3.25-11.07 6.09h1c0-2.92 8.62-6.06 21.44-6.06s21.44 3.15 21.44 6.06h1c0-1.98-2.29-3.6-5.81-4.79z"/><path d="m67.25 74.51-.49-.09-32-6.23 6.24-31.95 32.46 6.32zm-31.25-7.11 30.49 5.94 5.84-30-30.49-6z"/><path d="m47.17 45.99h1v11.62h-1z" transform="matrix(.19115164 -.98156052 .98156052 .19115164 -12.29 88.69)"/><path d="m60.42 48.57h1v11.63h-1z" transform="matrix(.19115164 -.98156052 .98156052 .19115164 -4.1 103.78)"/><path d="m46.6 48.93h1v11.62h-1z" transform="matrix(.19132295 -.98152714 .98152714 .19132295 -15.65 90.5)"/><path d="m59.85 51.51h1v11.63h-1z" transform="matrix(.19132295 -.98152714 .98152714 .19132295 -7.46 105.6)"/><path d="m59.31 54.27h1v11.63h-1z" transform="matrix(.19115164 -.98156052 .98156052 .19115164 -10.6 107.31)"/><path d="m58.74 57.22h1v11.63h-1z" transform="matrix(.19132295 -.98152714 .98152714 .19132295 -13.96 109.12)"/><path d="m44.95 57.4h1v11.63h-1z" transform="matrix(.19132295 -.98152714 .98152714 .19132295 -25.29 95.73)"/><path d="m58.2 59.98h1v11.62h-1z" transform="matrix(.19115164 -.98156052 .98156052 .19115164 -17.1 110.83)"/><path d="m44.37 60.34h1v11.63h-1z" transform="matrix(.19132295 -.98152714 .98152714 .19132295 -28.64 97.55)"/><path d="m57.62 62.92h1v11.62h-1z" transform="matrix(.19132295 -.98152714 .98152714 .19132295 -20.46 112.64)"/><path d="m51.56 62-11.25-2.15.84-4.29 11.25 2.19zm-10.07-3 9.28 1.81.45-2.33-9.28-1.81z"/><path d="m67.24 52.81-24.62-4.81 1.58-8.12 24.63 4.8zm-23.45-5.59 22.66 4.41 1.2-6.15-22.65-4.41z"/><path d="m22.48 43.73h-1v-6.5h1.06v1h-.06z"/><path d="m40 41.47.2-1a3.11 3.11 0 1 1 4.74-3.47l1.07.21a4.09 4.09 0 0 0 -8.09 0h-7.17a4.14 4.14 0 1 0 0 1h7.11a4.12 4.12 0 0 0 2.14 3.26zm-13.29-.47a3.12 3.12 0 1 1 3.11-3.12 3.12 3.12 0 0 1 -3.11 3.12z"/><path d="m38.89 45a3.56 3.56 0 0 0 .09-.73h-.98a3.62 3.62 0 0 1 -3.83 3.35 3.62 3.62 0 0 1 -3.82-3.35 3.61 3.61 0 0 1 3.82-3.35 4.18 4.18 0 0 1 2.16.58l.52-.85a5.16 5.16 0 0 0 -2.68-.73 4.61 4.61 0 0 0 -4.82 4.35 4.48 4.48 0 0 0 .07.64c-1.63.42-2.11 2.37-3.32 3.91-4.87 6.21-11.46.93-11.32 1.34.55 1.57 5.49 4 7.23 4.24 9.1 1.05 11.57-2.38 12-5.14a5.72 5.72 0 0 0 3.61 4.4l1.65-8.48a1.81 1.81 0 0 0 -.38-.18z"/></g></svg>